<?xml version="1.0" standalone="no"?>
<!DOCTYPE svg PUBLIC "-//W3C//DTD SVG 20010904//EN"
 "http://www.w3.org/TR/2001/REC-SVG-20010904/DTD/svg10.dtd">
<svg version="1.0" xmlns="http://www.w3.org/2000/svg"
 width="400.000000pt" height="400.000000pt" viewBox="0 0 400.000000 400.000000"
 preserveAspectRatio="xMidYMid meet">
<metadata>
Created by potrace 1.11, written by Peter Selinger 2001-2013
</metadata>
<g transform="translate(0.000000,400.000000) scale(0.100000,-0.100000)"
fill="#000000" stroke="none">
<path d="M1217 3982 c-2 -9 3 -25 12 -35 14 -16 13 -17 -5 -11 -10 4 -21 11
-24 15 -3 3 -20 10 -38 14 -32 7 -33 6 -20 -14 7 -12 19 -21 27 -21 8 0 11 -3
8 -7 -4 -3 0 -11 9 -17 21 -16 7 -46 -22 -46 -24 0 -32 14 -14 25 6 3 10 12
10 18 0 7 -8 2 -18 -11 l-17 -22 -34 42 c-24 31 -32 37 -28 21 4 -16 1 -23
-10 -23 -14 0 -14 -3 -1 -22 17 -26 13 -48 -8 -48 -8 0 -14 6 -15 13 0 6 -5 1
-10 -12 -7 -18 -6 -27 3 -33 9 -5 8 -8 -6 -8 -12 0 -16 -5 -12 -15 5 -14 -12
-21 -38 -16 -25 5 -56 -11 -56 -29 0 -11 -10 -24 -21 -31 -16 -8 -18 -13 -9
-19 9 -6 9 -9 0 -15 -7 -4 -9 -17 -6 -31 4 -16 2 -23 -6 -22 -23 5 -21 -35 3
-52 l22 -18 -21 -6 c-22 -7 -31 -36 -11 -36 5 0 8 -4 5 -8 -3 -5 1 -20 9 -35
12 -24 12 -28 -3 -36 -9 -5 -17 -22 -18 -38 -3 -60 -3 -60 -14 -43 -7 10 -8
-6 -6 -50 3 -36 5 -67 6 -70 1 -3 2 -9 1 -14 -1 -5 5 -6 14 -3 19 8 20 -7 0
-23 -8 -7 -15 -22 -15 -34 0 -12 -5 -27 -10 -32 -7 -7 -8 -33 -4 -68 8 -63 10
-65 19 -18 3 18 12 49 20 70 8 20 26 80 41 132 15 52 42 132 61 177 36 85 62
114 115 127 22 5 28 2 34 -16 7 -22 7 -22 14 -3 4 11 3 23 -4 27 -8 6 -8 8 0
8 6 0 19 -8 28 -19 15 -16 15 -19 1 -24 -23 -9 -18 -27 8 -27 12 0 47 7 77 16
30 9 66 16 80 16 14 0 31 4 38 10 9 8 12 6 12 -6 0 -19 16 -22 23 -3 3 9 8 9
21 -2 14 -12 16 -12 10 3 -7 17 14 18 126 6 3 0 -2 -5 -10 -10 -16 -10 28 -15
105 -11 68 3 85 9 78 28 -6 15 -5 16 9 3 15 -14 16 -16 1 -27 -9 -7 -14 -16
-10 -20 4 -3 15 0 24 8 48 39 128 55 156 31 9 -8 17 -10 17 -5 0 6 25 -2 55
-19 58 -31 101 -79 91 -103 -3 -8 8 -28 25 -46 16 -17 29 -37 29 -44 0 -9 17
-16 44 -20 36 -6 51 -15 83 -52 21 -24 50 -58 64 -74 27 -30 69 -127 69 -158
0 -9 4 -21 9 -26 5 -6 12 -25 16 -42 5 -27 4 -33 -11 -33 -9 0 -23 8 -30 18
-13 16 -14 16 -8 -2 5 -14 3 -17 -11 -15 -11 3 -19 14 -20 27 -2 26 -21 49
-32 39 -3 -4 1 -13 11 -20 11 -8 15 -19 10 -30 -8 -21 -24 -22 -24 -2 0 8 -11
17 -25 21 -15 4 -25 13 -25 24 0 10 -13 23 -32 31 l-31 13 31 10 31 11 -24 11
c-19 9 -22 9 -18 -3 4 -11 0 -14 -13 -11 -10 2 -18 10 -17 19 2 8 -7 20 -18
27 -20 13 -21 12 -14 -19 l7 -33 -27 18 c-15 10 -24 13 -21 7 10 -15 5 -14
-51 8 -82 32 -125 35 -155 12 -14 -12 -30 -21 -35 -21 -5 0 -20 -11 -33 -26
-14 -14 -45 -34 -69 -45 -25 -11 -53 -28 -63 -39 -14 -15 -26 -18 -51 -13 -31
6 -32 6 -14 -14 19 -22 24 -44 5 -25 -17 17 -41 15 -34 -3 3 -10 -1 -15 -11
-15 -14 0 -13 -3 5 -20 12 -11 26 -20 32 -20 5 0 10 -9 10 -21 0 -16 4 -19 18
-14 9 4 27 10 40 12 12 3 22 9 22 14 0 5 7 9 16 9 8 0 13 4 10 9 -4 5 16 17
43 26 27 9 51 20 53 26 8 25 238 83 238 60 0 -4 8 -8 18 -8 57 1 77 -4 62 -13
-8 -5 -10 -10 -4 -10 5 0 15 5 21 11 13 13 49 4 56 -15 4 -10 -10 -14 -59 -15
-106 -2 -432 -74 -454 -100 -8 -10 -132 -70 -178 -86 -29 -10 -80 -15 -154
-14 -118 0 -308 -32 -333 -57 -7 -8 -22 -11 -32 -8 -15 5 -16 4 -3 -6 12 -9 9
-10 -15 -6 -22 5 -26 4 -15 -4 13 -8 12 -10 -3 -10 -10 0 -31 -10 -46 -21 -16
-12 -34 -18 -40 -15 -7 5 -9 1 -5 -8 3 -9 2 -16 -4 -16 -6 0 -6 -16 -1 -42 10
-58 59 -188 70 -188 5 0 9 -6 9 -13 0 -19 64 -47 105 -47 54 0 225 36 276 58
25 11 62 34 83 52 20 18 36 28 37 24 0 -5 7 22 15 60 7 38 25 86 39 107 26 41
45 50 45 23 0 -8 5 -12 11 -9 6 4 17 -1 25 -11 9 -11 12 -13 8 -5 -4 9 -3 12
4 7 6 -4 8 -14 5 -23 -5 -13 -2 -15 11 -10 14 6 17 3 12 -8 -4 -10 -1 -15 8
-13 14 3 91 -71 82 -79 -2 -2 -18 -5 -35 -5 -34 -1 -41 -15 -13 -25 9 -4 23
-14 29 -24 10 -13 23 -15 56 -12 25 3 54 0 66 -7 22 -11 22 -11 6 19 -10 20
-27 34 -48 39 l-32 9 45 6 c76 11 184 21 199 20 7 -1 42 10 78 23 35 13 69 21
75 18 6 -4 8 -3 5 3 -3 5 11 17 31 26 75 34 77 38 78 140 3 154 0 144 37 155
17 6 52 12 77 15 46 4 46 4 62 -37 28 -70 34 -115 29 -216 -2 -40 -19 -73 -28
-52 -9 22 -23 13 -23 -15 0 -16 6 -48 14 -72 11 -37 11 -49 -1 -73 -8 -15 -16
-40 -19 -55 -11 -62 -47 -153 -61 -153 -8 0 -12 -4 -9 -8 3 -5 -8 -18 -23 -30
-21 -15 -31 -18 -40 -9 -8 8 -11 7 -11 -5 0 -9 -7 -24 -16 -32 -8 -9 -12 -21
-8 -27 4 -8 3 -9 -4 -5 -13 8 -36 -30 -27 -44 4 -6 0 -23 -8 -40 -10 -20 -11
-30 -4 -33 6 -2 3 -6 -6 -10 -9 -3 -17 -2 -17 3 0 6 -6 10 -13 10 -7 0 -22 7
-33 16 -10 8 -13 12 -5 8 11 -6 13 -2 7 17 -4 13 -11 41 -15 61 -5 21 -13 44
-20 52 -6 7 -8 22 -4 31 5 15 3 17 -11 12 -10 -4 -15 -3 -11 3 4 6 -8 10 -29
10 -19 0 -36 5 -38 11 -5 16 -74 28 -88 15 -8 -8 -9 -7 -5 7 4 9 3 17 -3 17
-6 0 -12 -6 -15 -12 -6 -19 -49 22 -43 42 2 8 9 30 14 48 13 39 -2 43 -21 6
-8 -15 -29 -32 -50 -39 -20 -7 -34 -9 -31 -4 2 4 -8 4 -24 -2 -16 -5 -33 -9
-38 -8 -28 5 -56 -2 -51 -14 3 -7 -1 -20 -8 -30 -9 -13 -19 -15 -41 -8 -25 7
-51 7 -103 2 -7 0 -11 -7 -8 -16 4 -8 2 -17 -4 -21 -5 -3 -7 -14 -4 -25 5 -14
3 -17 -10 -13 -11 5 -18 0 -22 -15 -3 -11 -11 -21 -18 -21 -8 0 -16 -8 -19
-17 -3 -11 -17 -19 -32 -20 -34 -1 -50 -19 -63 -67 -9 -33 -8 -41 6 -51 13
-10 20 -10 31 1 7 8 20 14 29 14 8 0 37 16 63 35 40 29 52 34 73 26 17 -7 32
-5 52 5 16 8 36 14 44 12 9 -1 29 1 44 5 18 5 34 3 43 -4 11 -9 18 -8 32 5 18
16 92 23 92 9 -1 -19 -18 -30 -57 -37 -23 -3 -53 -11 -67 -17 -30 -14 -45 -43
-18 -35 9 3 39 8 66 12 l48 7 -17 -27 c-10 -14 -16 -26 -14 -27 40 -8 54 -7
72 6 12 8 29 15 39 15 9 0 39 12 65 26 30 18 48 23 51 15 2 -6 18 -11 34 -11
17 0 28 -3 25 -7 -9 -9 24 -32 46 -33 10 0 16 -4 13 -9 -4 -5 -1 -11 5 -13 13
-4 -8 -88 -24 -99 -6 -4 -7 -17 -4 -30 7 -27 -48 -87 -75 -81 -10 2 -18 -1
-18 -6 0 -16 -51 -34 -65 -22 -9 8 -14 6 -18 -5 -8 -19 -34 -9 -42 16 -4 11
-11 17 -16 13 -5 -3 -9 22 -8 62 1 41 -3 70 -9 72 -6 2 -9 9 -6 16 9 23 -45
25 -132 4 -101 -24 -113 -37 -83 -94 21 -41 31 -120 14 -117 -5 0 -16 -5 -23
-13 -15 -17 -2 -18 32 -3 16 7 23 17 19 28 -3 12 -1 11 7 -2 9 -14 9 -22 1
-30 -6 -6 -11 -22 -11 -35 0 -13 -7 -30 -15 -38 -9 -9 -15 -11 -15 -4 0 6 -6
10 -12 9 -7 -1 -26 3 -41 9 -36 15 -37 15 -37 -5 0 -15 -2 -16 -10 -3 -8 12
-10 11 -10 -7 0 -14 -6 -23 -15 -23 -11 0 -12 5 -5 26 7 18 7 23 -1 18 -8 -4
-9 1 -5 17 6 23 6 23 -5 3 -7 -13 -21 -22 -35 -22 -20 0 -22 3 -13 14 16 19 3
30 -16 14 -12 -10 -15 -9 -17 6 0 11 -2 24 -2 31 -1 7 -7 18 -14 25 -6 6 -12
17 -12 22 0 6 -4 18 -10 26 -7 12 -12 12 -29 -4 -18 -17 -21 -17 -45 0 -39 25
-40 13 -1 -31 19 -22 35 -50 35 -62 0 -13 0 -26 0 -30 0 -12 -52 -23 -126 -25
-39 -2 -68 -7 -67 -13 1 -5 -3 -15 -9 -22 -18 -22 39 -26 148 -9 58 9 108 17
112 18 15 3 62 -15 62 -23 0 -5 7 -9 16 -9 14 0 15 -10 10 -72 -11 -119 -18
-203 -18 -208 -2 -91 4 -220 11 -216 10 7 -8 -75 -20 -88 -4 -4 -3 11 2 34 5
24 7 45 4 48 -2 3 -28 -2 -56 -11 -28 -10 -57 -17 -65 -17 -7 0 -18 -8 -24
-17 -9 -15 -10 -13 -5 12 18 94 18 102 -1 109 -10 4 -15 4 -11 0 13 -13 -14
-35 -28 -24 -10 8 -15 6 -20 -9 -3 -11 -15 -23 -26 -26 -10 -4 -19 -13 -19
-21 0 -19 16 -18 24 1 3 8 13 15 21 15 14 0 13 -4 -5 -27 -14 -18 -17 -30 -10
-37 5 -5 10 -16 10 -24 0 -8 14 -37 30 -64 26 -42 29 -54 21 -81 -5 -18 -10
-27 -10 -20 -1 7 -8 10 -17 6 -14 -5 -15 -1 -9 28 7 31 6 32 -9 19 -15 -12
-19 -12 -27 1 -5 8 -9 25 -9 39 0 19 -2 22 -9 10 -6 -8 -7 -18 -4 -24 3 -5 1
-6 -5 -2 -7 4 -12 18 -12 30 0 16 -7 26 -22 30 -13 3 -24 1 -26 -4 -2 -6 -8
-10 -14 -10 -6 0 -8 6 -5 14 7 17 -16 28 -38 20 -17 -7 -20 -24 -5 -24 6 0 10
5 10 12 0 6 2 9 6 6 8 -9 -29 -65 -59 -88 -15 -12 -34 -34 -42 -50 -8 -15 -26
-42 -40 -58 -23 -27 -29 -30 -45 -19 -15 9 -22 9 -31 0 -10 -10 -6 -15 15 -23
15 -5 34 -10 42 -10 11 0 13 -6 9 -20 -4 -14 -2 -20 9 -20 10 0 13 -6 9 -17
-5 -13 -2 -15 16 -10 20 5 22 3 16 -26 -4 -18 -19 -47 -34 -66 -14 -18 -36
-47 -48 -64 -15 -20 -23 -26 -23 -16 0 9 9 28 20 42 24 31 25 38 4 30 -13 -5
-15 -2 -9 17 5 17 4 21 -6 17 -15 -5 -15 -10 -3 -41 5 -13 4 -17 -3 -13 -6 4
-14 -4 -17 -18 -4 -14 -20 -37 -36 -52 -17 -14 -31 -33 -31 -42 -1 -9 -4 -2
-8 14 l-7 30 -16 -25 c-9 -14 -20 -38 -24 -54 -6 -25 -4 -28 10 -23 13 5 17 2
14 -13 -3 -20 -17 -28 -19 -12 -1 4 -10 13 -20 20 -11 7 -19 20 -19 28 0 8 -4
14 -9 14 -15 0 -22 -68 -19 -187 l3 -113 776 0 c765 0 777 0 782 20 8 30 51
46 81 30 13 -7 27 -21 29 -31 5 -18 32 -19 826 -19 l821 0 0 1105 0 1105 -40
0 c-33 0 -40 -3 -40 -20 0 -11 -7 -20 -15 -20 -8 0 -15 -7 -15 -15 0 -8 -4
-15 -10 -15 -5 0 -10 7 -10 15 0 8 -7 15 -15 15 -8 0 -15 7 -15 15 0 11 -11
15 -40 15 -24 0 -40 -5 -40 -12 0 -6 -11 -1 -25 12 -19 18 -28 20 -38 12 -8
-7 -17 -9 -20 -6 -3 4 -12 -5 -18 -20 -15 -33 -23 -33 -38 1 -7 15 -15 22 -19
17 -6 -9 -65 -34 -79 -34 -2 0 -1 35 2 79 7 73 6 79 -14 93 -15 10 -32 13 -54
9 -31 -7 -32 -8 -31 -56 1 -28 5 -76 9 -107 5 -39 4 -67 -5 -87 -6 -16 -9 -39
-5 -50 5 -17 13 -21 40 -18 54 6 60 -3 59 -88 -1 -41 2 -75 6 -75 16 0 19 -45
4 -61 -13 -14 -13 -22 -4 -39 15 -28 9 -33 -33 -25 l-34 7 -5 89 c-3 49 -11
95 -18 103 -6 8 -10 28 -8 43 3 26 0 28 -37 33 -38 5 -40 7 -49 50 -4 25 -8
65 -8 90 -1 52 18 199 32 250 5 19 11 61 14 93 3 44 1 57 -9 57 -21 0 -24 -9
-35 -136 -6 -65 -15 -153 -20 -194 -11 -75 -15 -124 -26 -275 -3 -44 -6 -93
-8 -110 -2 -21 -8 -31 -22 -33 -17 -2 -20 3 -22 37 -2 22 3 55 10 73 12 31 15
185 6 338 -3 52 -4 55 -32 58 l-29 4 7 69 c5 55 3 69 -8 69 -16 0 -31 78 -21
109 5 16 -2 21 -46 32 -28 7 -53 19 -55 26 -12 39 -15 45 -20 40 -8 -8 -12
-78 -19 -332 -3 -115 -9 -240 -13 -277 -4 -37 -5 -65 -1 -62 13 8 19 -27 8
-47 -13 -26 -28 -14 -55 40 -15 31 -36 50 -99 88 -101 60 -135 92 -135 131 0
49 -12 93 -24 89 -6 -2 -10 -22 -10 -45 1 -23 0 -42 -3 -42 -2 0 -19 11 -37
25 -18 14 -38 25 -44 25 -16 0 -15 17 1 23 9 3 9 8 -2 21 -9 10 -14 39 -13 76
0 33 -3 62 -9 65 -14 9 -11 22 9 29 9 3 25 11 34 18 22 16 34 4 42 -44 6 -34
4 -38 -24 -53 -23 -12 -30 -12 -30 -3 0 10 -3 9 -9 -1 -10 -16 -3 -43 9 -36 5
3 10 0 12 -7 5 -14 58 -2 58 13 0 6 9 18 21 28 17 13 22 30 25 81 1 36 6 85
10 110 8 51 7 220 -2 265 -8 39 -32 77 -44 70 -15 -9 -12 -25 3 -25 15 0 15 1
23 -92 5 -51 3 -68 -6 -68 -9 0 -11 -12 -7 -45 8 -58 -9 -138 -33 -160 -18
-16 -19 -16 -26 10 -4 14 -2 31 4 37 11 11 5 77 -8 91 -4 5 -11 -10 -15 -32
-4 -23 -18 -55 -32 -72 -25 -30 -26 -30 -40 -9 -9 13 -13 34 -10 53 2 17 1 39
-3 47 -4 8 -15 58 -23 110 -15 95 -11 115 19 103 7 -2 19 5 26 16 7 12 16 21
20 21 5 0 17 9 28 20 11 11 33 20 50 20 17 0 30 4 30 9 0 17 -43 20 -78 5 -19
-7 -35 -14 -36 -14 0 0 -2 24 -4 53 -1 28 -10 79 -18 112 -33 128 -48 182 -64
225 -32 85 -50 145 -50 168 0 13 -11 40 -25 60 -14 20 -25 40 -25 45 0 4 -12
20 -27 36 -32 32 -43 48 -79 115 -29 55 -142 172 -189 197 -16 8 -29 21 -27
28 1 7 -2 10 -7 7 -5 -4 -12 -2 -16 4 -4 7 -147 10 -425 10 -387 -1 -419 -2
-423 -18z m3 -112 c0 -5 -4 -10 -10 -10 -5 0 -10 5 -10 10 0 6 5 10 10 10 6 0
10 -4 10 -10z m-320 -221 c0 -5 -4 -9 -10 -9 -5 0 -10 7 -10 16 0 8 5 12 10 9
6 -3 10 -10 10 -16z m24 -14 c3 -9 0 -15 -9 -15 -9 0 -12 6 -9 15 4 8 7 15 9
15 2 0 5 -7 9 -15z m961 -65 c4 -6 -5 -10 -19 -10 -14 0 -26 5 -26 10 0 6 9
10 19 10 11 0 23 -4 26 -10z m-190 -40 c3 -5 1 -10 -4 -10 -6 0 -11 5 -11 10
0 6 2 10 4 10 3 0 8 -4 11 -10z m462 -536 c-3 -3 -12 -4 -19 -1 -8 3 -5 6 6 6
11 1 17 -2 13 -5z m110 -70 c-3 -3 -12 -4 -19 -1 -8 3 -5 6 6 6 11 1 17 -2 13
-5z m-119 -51 c-10 -2 -26 -2 -35 0 -10 3 -2 5 17 5 19 0 27 -2 18 -5z m74 -9
c-13 -9 -21 -10 -32 -1 -8 6 -16 12 -18 13 -2 1 12 2 32 1 30 -1 32 -3 18 -13z
m48 -14 c0 -26 -21 -70 -33 -70 -6 0 -7 3 -4 6 3 4 2 16 -4 28 -9 19 -9 20 4
3 14 -17 15 -16 20 3 4 14 0 20 -11 21 -15 1 -15 2 0 6 11 3 15 10 11 20 -4
11 -2 14 5 9 7 -4 12 -16 12 -26z m50 5 c0 -29 -3 -30 -24 -9 -22 21 -20 34 4
34 15 0 20 -7 20 -25z m-100 -98 c6 -29 10 -81 8 -117 -3 -65 -3 -65 -44 -86
-36 -19 -139 -54 -159 -54 -4 0 -2 6 4 13 11 14 5 27 -13 27 -6 0 -4 -4 4 -10
12 -8 12 -10 -3 -16 -9 -3 -14 -11 -10 -17 3 -5 2 -7 -4 -4 -5 3 -27 0 -49 -8
-58 -21 -138 -19 -184 5 -29 15 -50 38 -80 88 -61 103 -53 141 34 177 l38 16
-21 -29 c-22 -31 -28 -58 -11 -47 6 3 10 -3 10 -14 0 -12 5 -21 10 -21 6 0 10
-7 10 -15 0 -8 7 -16 15 -16 8 -1 21 -2 27 -3 7 -1 13 8 13 18 0 14 10 22 35
29 33 8 34 10 15 23 -10 8 -25 14 -33 14 -7 0 -10 5 -7 10 4 6 11 8 16 5 5 -4
9 0 9 7 0 9 3 10 8 2 8 -13 72 -7 72 7 0 8 -36 13 -77 12 -19 -1 -16 7 9 28
25 23 48 25 48 4 0 -10 10 -15 33 -15 30 -1 31 -1 13 -15 -17 -13 -18 -17 -6
-28 7 -7 10 -7 7 -1 -5 8 11 14 47 18 45 6 55 11 60 30 5 19 15 25 55 30 28 4
53 11 56 17 12 19 34 -12 45 -64z m35 -37 c10 -46 0 -36 -14 14 -5 22 -6 35
-2 30 5 -5 12 -25 16 -44z m-775 -39 c0 -5 -9 -7 -20 -4 -11 3 -20 7 -20 9 0
2 9 4 20 4 11 0 20 -4 20 -9z m320 -6 c0 -8 -4 -15 -10 -15 -5 0 -10 7 -10 15
0 8 5 15 10 15 6 0 10 -7 10 -15z m-395 -21 c29 -12 45 -60 45 -137 0 -117
-37 -155 -199 -207 -78 -25 -219 -37 -248 -22 -22 12 -57 79 -79 152 -8 25
-14 46 -14 48 0 1 7 2 15 2 19 0 19 34 0 54 -13 13 -12 17 12 34 29 20 152 62
182 62 14 -1 14 -2 1 -13 -8 -7 -21 -20 -28 -29 -12 -15 -9 -17 30 -16 24 1
35 3 26 6 -22 4 -24 22 -3 22 9 0 19 10 24 21 7 21 8 21 29 -9 21 -28 21 -31
5 -36 -10 -3 -6 -4 10 -2 15 2 30 -1 33 -6 3 -5 15 -1 27 9 11 10 17 12 13 6
-4 -7 -2 -13 3 -13 6 0 11 5 11 12 0 6 7 3 15 -8 11 -14 14 -15 15 -4 0 12 2
13 9 1 7 -11 10 -9 16 8 3 11 13 21 20 21 23 0 28 21 9 35 -20 15 -8 20 21 9z
m-122 -21 c-7 -2 -19 -2 -25 0 -7 3 -2 5 12 5 14 0 19 -2 13 -5z m227 -28 c-7
-9 -15 -13 -17 -11 -7 7 7 26 19 26 6 0 6 -6 -2 -15z m1101 -460 c4 22 6 18 6
-17 0 -27 -3 -48 -7 -48 -11 0 -20 40 -18 85 l1 40 7 -45 c6 -41 6 -43 11 -15z
m-1081 -5 c0 -5 -5 -10 -11 -10 -5 0 -7 5 -4 10 3 6 8 10 11 10 2 0 4 -4 4
-10z m2359 -95 c-6 -19 -8 -39 -5 -43 2 -4 1 -14 -4 -22 -8 -13 -12 -12 -24 5
-20 26 -20 51 -1 59 8 3 15 12 15 21 0 8 6 15 14 15 12 0 12 -7 5 -35z m-1269
-5 c0 -11 -4 -20 -10 -20 -5 0 -10 9 -10 20 0 11 5 20 10 20 6 0 10 -9 10 -20z
m-73 -31 c-9 -6 -17 -18 -18 -27 0 -11 -2 -13 -6 -4 -6 14 27 56 36 46 3 -3
-2 -10 -12 -15z m-652 -3 c7 3 16 1 20 -5 3 -7 -2 -11 -14 -11 -29 0 -52 11
-45 22 4 6 10 6 16 0 6 -6 16 -8 23 -6z m1758 0 c6 -15 -1 -26 -15 -26 -4 0
-8 9 -8 20 0 23 15 27 23 6z m-1053 -26 c0 -11 -4 -20 -10 -20 -5 0 -10 9 -10
20 0 11 5 20 10 20 6 0 10 -9 10 -20z m-53 -47 c-3 -10 -5 -4 -5 12 0 17 2 24
5 18 2 -7 2 -21 0 -30z m-12 -33 c18 0 33 15 29 28 -3 9 2 6 10 -8 20 -33 20
-40 -1 -40 -15 0 -16 -2 -3 -10 12 -8 12 -11 -3 -28 -9 -10 -17 -23 -17 -28 0
-23 -53 -114 -66 -114 -9 0 -13 -4 -10 -9 8 -12 -23 -71 -37 -71 -7 0 -18 4
-25 9 -11 6 -10 10 3 15 10 3 15 12 11 21 -3 9 0 15 8 15 19 0 46 86 32 100
-7 7 -7 10 1 10 12 0 12 32 1 40 -4 3 -5 15 -2 27 4 15 11 20 22 15 15 -5 15
-3 4 10 -11 14 -11 18 1 25 7 4 17 17 22 28 8 18 9 18 13 -7 2 -16 5 -28 7
-28z m871 26 c17 -18 10 -40 -20 -60 -29 -18 -46 -5 -46 35 0 38 38 52 66 25z
m-1016 -286 c0 -5 -4 -10 -10 -10 -5 0 -10 5 -10 10 0 6 5 10 10 10 6 0 10 -4
10 -10z m-700 -75 c-7 -9 -15 -13 -18 -10 -3 2 1 11 8 20 7 9 15 13 18 10 3
-2 -1 -11 -8 -20z m690 3 c0 -6 -9 -12 -20 -15 -10 -3 -22 -14 -25 -24 -4 -10
-11 -19 -17 -19 -6 0 -17 -8 -24 -17 -11 -15 -15 -16 -26 -4 -10 11 -10 14 0
18 6 3 9 9 6 15 -4 6 1 8 14 4 22 -7 39 8 22 19 -18 11 6 30 39 31 17 1 31 -3
31 -8z m-84 -102 c14 4 24 2 24 -4 0 -6 -16 -14 -35 -18 -19 -3 -39 -12 -43
-19 -4 -6 -17 -17 -28 -23 -17 -9 -25 -8 -34 3 -16 19 -14 21 30 33 19 6 27
11 18 11 -10 1 -18 5 -18 9 0 17 12 21 37 11 13 -5 35 -6 49 -3z m-139 -69
l-2 -62 43 -3 c26 -2 50 2 59 10 12 9 17 10 20 2 2 -7 12 -10 22 -7 11 3 27
-5 40 -18 23 -25 27 -39 11 -39 -13 0 -13 -50 0 -70 9 -13 11 -13 20 0 18 28
10 -2 -11 -40 -19 -34 -20 -39 -6 -56 9 -11 25 -30 36 -44 14 -17 20 -20 21
-10 0 8 11 20 24 26 23 11 24 10 14 -18 -6 -16 -17 -32 -24 -35 -8 -3 -14 -13
-14 -22 -1 -35 -43 -67 -53 -38 -2 6 -4 -3 -5 -20 0 -18 4 -35 9 -38 19 -12
10 -64 -15 -80 -13 -9 -38 -41 -55 -73 -17 -31 -40 -73 -51 -92 -11 -19 -20
-42 -20 -52 0 -23 -20 -34 -20 -11 -1 17 -1 17 -14 0 -13 -17 -15 -16 -21 12
-4 17 -15 33 -26 36 -10 4 -19 13 -19 21 0 13 -11 18 -36 15 -15 -2 -174 149
-174 165 0 7 -11 21 -25 32 -14 11 -25 23 -25 27 0 4 -10 18 -22 30 -29 27
-58 63 -58 71 0 3 -21 31 -46 62 -25 31 -51 64 -57 72 -25 31 -145 216 -161
248 -19 38 -15 56 6 23 7 -12 20 -21 30 -21 9 0 23 -6 31 -14 17 -17 46 -22
70 -11 10 4 35 4 55 0 51 -9 74 -8 82 6 5 8 10 8 14 0 5 -7 15 -7 33 0 15 6
37 8 49 5 14 -4 29 0 39 10 12 12 19 13 29 5 10 -9 16 -9 21 -1 4 7 11 8 18 1
18 -14 66 -1 78 20 7 15 16 18 36 13 18 -5 24 -3 19 4 -5 8 -1 10 10 5 14 -5
16 -3 11 11 -4 9 -3 15 2 11 6 -3 9 -33 8 -68z m163 13 c0 -5 -5 -10 -11 -10
-5 0 -7 5 -4 10 3 6 8 10 11 10 2 0 4 -4 4 -10z m-770 -572 c9 -15 6 -18 -14
-18 -13 0 -27 -6 -30 -12 -5 -10 -7 -10 -12 0 -3 6 -12 12 -20 12 -12 0 -12 4
1 30 9 17 20 30 26 30 6 0 8 4 5 9 -3 5 -3 24 1 42 6 32 6 31 19 -22 8 -30 18
-62 24 -71z m-113 0 c-3 -8 -6 -5 -6 6 -1 11 2 17 5 13 3 -3 4 -12 1 -19z
m-327 -72 c0 -3 -4 -8 -10 -11 -5 -3 -10 -1 -10 4 0 6 5 11 10 11 6 0 10 -2
10 -4z m-117 -102 c-14 -14 -28 -23 -31 -20 -8 8 39 56 49 51 4 -3 -4 -17 -18
-31z m68 -125 c-13 -11 -27 -17 -30 -13 -3 3 5 14 18 25 13 11 27 17 30 13 3
-3 -5 -14 -18 -25z m-41 -19 c0 -5 -4 -10 -10 -10 -5 0 -10 5 -10 10 0 6 5 10
10 10 6 0 10 -4 10 -10z m-20 -43 c0 -12 -16 -40 -35 -62 -25 -29 -35 -35 -35
-22 0 9 3 17 8 17 4 0 18 20 32 45 14 25 26 45 27 45 2 0 3 -10 3 -23z m50 9
c0 -2 -7 -7 -16 -10 -8 -3 -12 -2 -9 4 6 10 25 14 25 6z m1198 -106 c37 -35
21 -90 -26 -90 -38 0 -53 12 -58 48 -4 23 0 34 18 46 29 21 40 20 66 -4z
m-1392 -167 c-10 -10 -19 5 -10 18 6 11 8 11 12 0 2 -7 1 -15 -2 -18z m-10
-70 c2 -31 0 -43 -6 -34 -7 12 -11 12 -24 2 -9 -8 -16 -20 -16 -29 0 -8 -3
-12 -6 -9 -4 4 3 29 15 58 12 28 20 58 16 67 -5 14 -4 14 6 5 7 -7 14 -34 15
-60z m-56 6 c-7 -11 -14 -18 -17 -15 -3 3 0 12 7 21 18 21 23 19 10 -6z"/>
<path d="M2156 2757 c3 -10 9 -15 12 -12 3 3 0 11 -7 18 -10 9 -11 8 -5 -6z"/>
<path d="M2068 2543 c7 -3 16 -2 19 1 4 3 -2 6 -13 5 -11 0 -14 -3 -6 -6z"/>
<path d="M931 2470 c0 -8 4 -24 9 -35 5 -13 9 -14 9 -5 0 8 -4 24 -9 35 -5 13
-9 14 -9 5z"/>
<path d="M2490 1850 c0 -5 7 -10 15 -10 8 0 15 5 15 10 0 6 -7 10 -15 10 -8 0
-15 -4 -15 -10z"/>
<path d="M1500 857 c0 -8 7 -18 16 -21 11 -4 14 -1 12 11 -4 21 -28 30 -28 10z"/>
<path d="M2202 360 c-19 -8 -21 -13 -13 -29 15 -27 51 -16 51 15 0 26 -4 27
-38 14z"/>
<path d="M3369 3987 c-19 -14 -21 -47 -3 -47 10 0 44 41 44 55 0 9 -25 5 -41
-8z"/>
<path d="M3447 3992 c6 -4 13 -21 16 -37 4 -27 4 -27 6 8 1 29 -3 37 -16 37
-12 0 -14 -3 -6 -8z"/>
<path d="M1180 3980 c-13 -8 -12 -10 3 -10 9 0 17 5 17 10 0 12 -1 12 -20 0z"/>
<path d="M2743 3928 c2 -7 0 -21 -5 -31 -6 -12 -4 -24 5 -37 13 -19 15 -19 33
16 19 35 19 36 0 50 -24 17 -39 18 -33 2z"/>
<path d="M2840 3909 c0 -5 5 -7 10 -4 6 3 10 8 10 11 0 2 -4 4 -10 4 -5 0 -10
-5 -10 -11z"/>
<path d="M3452 3815 c0 -57 5 -102 10 -99 10 7 6 204 -4 204 -4 0 -7 -47 -6
-105z"/>
<path d="M3305 3899 c-10 -15 3 -25 16 -12 7 7 7 13 1 17 -6 3 -14 1 -17 -5z"/>
<path d="M3253 3874 c-37 -16 -60 -51 -45 -66 6 -6 8 -17 5 -24 -8 -22 4 -17
36 15 27 26 50 76 40 85 -2 2 -18 -3 -36 -10z"/>
<path d="M2820 3864 c0 -8 5 -12 10 -9 6 3 10 10 10 16 0 5 -4 9 -10 9 -5 0
-10 -7 -10 -16z"/>
<path d="M2817 3833 c-4 -3 -7 -17 -7 -30 0 -14 -4 -21 -10 -18 -5 3 -10 1
-10 -6 0 -7 -11 -26 -24 -44 -20 -26 -25 -45 -27 -115 -3 -76 -2 -84 17 -90
16 -6 23 -23 33 -82 7 -40 17 -83 22 -95 5 -14 5 -23 0 -23 -12 0 -25 -56 -16
-70 3 -6 11 -8 16 -4 6 4 6 11 -1 19 -8 10 -8 16 2 22 8 4 24 50 36 102 13 51
34 117 48 146 26 59 29 75 13 75 -36 0 -71 79 -70 157 1 58 -5 73 -22 56z m53
-215 c0 -13 -23 -5 -28 10 -2 7 2 10 12 6 9 -3 16 -11 16 -16z"/>
<path d="M3435 3618 c-3 -35 -5 -74 -5 -88 1 -14 -1 -50 -5 -80 l-6 -55 18 35
c14 28 18 56 16 138 -1 57 -4 106 -6 109 -3 2 -8 -24 -12 -59z"/>
<path d="M3106 3641 c-4 -7 -5 -15 -2 -18 9 -9 19 4 14 18 -4 11 -6 11 -12 0z"/>
<path d="M1675 3480 c3 -5 11 -10 16 -10 6 0 7 5 4 10 -3 6 -11 10 -16 10 -6
0 -7 -4 -4 -10z"/>
<path d="M841 3434 c0 -11 3 -14 6 -6 3 7 2 16 -1 19 -3 4 -6 -2 -5 -13z"/>
<path d="M3407 3286 c-4 -10 -7 -25 -6 -34 0 -11 4 -9 10 7 5 13 8 29 6 35 -2
5 -6 2 -10 -8z"/>
<path d="M822 3180 c0 -19 2 -27 5 -17 2 9 2 25 0 35 -3 9 -5 1 -5 -18z"/>
<path d="M3401 3194 c0 -11 3 -14 6 -6 3 7 2 16 -1 19 -3 4 -6 -2 -5 -13z"/>
<path d="M2930 3150 c0 -18 4 -29 10 -25 6 3 10 15 10 25 0 10 -4 22 -10 25
-6 4 -10 -7 -10 -25z"/>
<path d="M2940 2959 c-1 -85 -4 -183 -8 -218 l-7 -64 -46 -13 c-34 -10 -48
-20 -53 -37 -7 -29 2 -67 23 -90 12 -14 12 -20 3 -26 -15 -9 -18 -214 -3 -251
9 -22 10 -19 10 23 1 26 7 65 14 88 12 39 13 40 48 34 31 -5 37 -3 47 20 18
40 28 564 11 596 -7 13 -13 34 -14 46 0 13 -6 28 -12 34 -9 9 -12 -26 -13
-142z"/>
<path d="M2284 3024 c3 -9 6 -18 6 -20 0 -2 6 -4 14 -4 8 0 18 -9 21 -20 3
-11 10 -20 15 -20 11 0 3 25 -18 58 -16 25 -48 31 -38 6z"/>
<path d="M832 2960 c0 -14 2 -19 5 -12 2 6 2 18 0 25 -3 6 -5 1 -5 -13z"/>
<path d="M3060 2913 c0 -50 1 -52 23 -44 24 9 38 61 16 61 -6 0 -18 8 -25 18
-12 15 -13 10 -14 -35z"/>
<path d="M834 2887 c3 -9 0 -29 -6 -43 -9 -19 -9 -33 2 -62 7 -20 15 -46 16
-57 11 -62 33 -120 48 -123 21 -4 20 6 -3 76 -11 31 -25 86 -31 122 -7 36 -16
74 -21 85 -6 12 -8 13 -5 2z"/>
<path d="M1248 2845 c-4 -4 -33 -8 -65 -10 -32 -1 -66 -5 -75 -8 -10 -4 -25
-9 -34 -12 -8 -3 -13 -9 -10 -14 4 -5 0 -11 -6 -14 -8 -3 -2 -9 13 -15 15 -6
29 -18 32 -26 6 -14 19 -16 89 -11 46 4 111 14 146 23 50 14 62 21 62 37 0 11
-9 26 -20 32 -23 15 -122 28 -132 18z"/>
<path d="M2340 2781 c0 -6 5 -13 10 -16 6 -3 10 1 10 9 0 9 -4 16 -10 16 -5 0
-10 -4 -10 -9z"/>
<path d="M3461 2764 c0 -11 3 -14 6 -6 3 7 2 16 -1 19 -3 4 -6 -2 -5 -13z"/>
<path d="M2801 2630 c-1 -3 -4 -18 -6 -34 -3 -20 -1 -26 6 -19 6 6 9 21 6 34
-2 13 -5 22 -6 19z"/>
<path d="M835 2540 c-3 -5 -1 -10 4 -10 6 0 11 5 11 10 0 6 -2 10 -4 10 -3 0
-8 -4 -11 -10z"/>
<path d="M2040 2450 c-12 -7 -12 -10 -1 -10 8 0 11 -6 7 -16 -5 -12 1 -15 32
-12 30 2 38 7 40 26 3 17 -1 22 -19 22 -22 0 -22 0 -3 -15 18 -14 18 -14 0
-15 -10 0 -24 7 -30 15 -8 10 -15 12 -26 5z"/>
<path d="M2160 2444 c0 -14 3 -15 18 -3 9 7 19 15 21 16 2 2 -5 3 -17 3 -14 0
-22 -6 -22 -16z"/>
<path d="M2240 2340 c0 -5 5 -10 11 -10 5 0 7 5 4 10 -3 6 -8 10 -11 10 -2 0
-4 -4 -4 -10z"/>
<path d="M3570 2276 c0 -31 5 -46 16 -50 12 -5 15 -2 10 10 -3 8 -6 31 -6 50
0 19 -4 34 -10 34 -5 0 -10 -20 -10 -44z"/>
<path d="M1677 2294 c-20 -20 -4 -29 49 -26 36 3 54 8 51 15 -4 13 -89 22
-100 11z"/>
<path d="M3680 2291 c0 -5 7 -11 15 -15 8 -3 12 -12 9 -21 -4 -9 0 -15 9 -15
18 0 19 40 2 52 -14 11 -35 10 -35 -1z"/>
<path d="M3768 2293 c6 -2 18 -2 25 0 6 3 1 5 -13 5 -14 0 -19 -2 -12 -5z"/>
<path d="M1457 2253 c-15 -14 -6 -23 23 -23 32 0 40 14 14 24 -20 8 -29 8 -37
-1z"/>
<path d="M2170 2210 c0 -5 5 -10 10 -10 6 0 10 5 10 10 0 6 -4 10 -10 10 -5 0
-10 -4 -10 -10z"/>
<path d="M2290 2205 c0 -8 5 -15 10 -15 6 0 10 7 10 15 0 8 -4 15 -10 15 -5 0
-10 -7 -10 -15z"/>
<path d="M2301 2161 c-10 -6 -9 -10 3 -14 8 -3 18 -2 21 3 8 13 -9 20 -24 11z"/>
<path d="M1388 2043 c7 -3 16 -2 19 1 4 3 -2 6 -13 5 -11 0 -14 -3 -6 -6z"/>
<path d="M3016 1965 c-9 -26 -7 -32 5 -12 6 10 9 21 6 23 -2 3 -7 -2 -11 -11z"/>
<path d="M1560 1928 c-19 -5 -39 -14 -44 -19 -6 -5 -30 -9 -55 -9 -41 -1 -81
-17 -81 -33 0 -13 107 7 132 25 15 10 53 22 85 27 32 5 50 9 41 10 -9 0 -22 3
-30 5 -7 2 -29 0 -48 -6z"/>
<path d="M1140 1832 c0 -5 7 -17 15 -28 15 -19 20 -8 9 20 -6 17 -24 22 -24 8z"/>
<path d="M1190 1754 c0 -8 6 -11 15 -8 8 4 15 9 15 13 0 4 -7 8 -15 8 -8 0
-15 -6 -15 -13z"/>
<path d="M1231 1704 c0 -11 3 -14 6 -6 3 7 2 16 -1 19 -3 4 -6 -2 -5 -13z"/>
<path d="M1330 1691 c0 -7 -4 -9 -10 -6 -5 3 -10 1 -10 -4 0 -6 4 -11 9 -11
13 0 25 20 17 27 -3 4 -6 1 -6 -6z"/>
<path d="M0 1340 c0 -71 4 -130 9 -130 4 0 21 -18 36 -40 15 -21 30 -39 34
-38 15 2 70 -15 66 -21 -2 -4 6 -13 18 -21 20 -12 21 -12 9 3 -11 13 -10 16 9
22 11 4 39 8 62 9 47 3 60 22 24 35 -14 5 -26 14 -28 20 -3 6 -17 7 -40 2 -30
-7 -38 -5 -48 11 -10 16 -9 23 1 36 21 27 24 28 105 28 85 -1 81 2 98 -80 4
-16 14 -30 25 -33 11 -3 20 -8 20 -12 0 -12 74 -49 88 -44 7 3 19 -1 27 -7 8
-7 22 -9 31 -6 18 7 11 60 -12 87 -8 8 -14 19 -14 24 0 4 -8 13 -17 20 -11 9
-17 28 -17 61 l-1 49 53 -1 52 -2 0 49 c0 47 -1 48 -32 53 -27 4 -331 18 -413
20 -11 0 -34 -3 -51 -7 -25 -6 -35 -3 -58 18 -15 14 -29 25 -32 25 -2 0 -4
-58 -4 -130z"/>
<path d="M1153 1415 c-12 -8 -23 -25 -25 -37 -2 -13 -14 -28 -26 -34 -13 -7
-32 -25 -42 -42 -10 -16 -30 -32 -44 -36 -24 -6 -26 -11 -27 -64 -1 -62 -15
-132 -19 -97 -2 17 -3 17 -10 -5 -4 -14 -8 -18 -9 -10 -1 8 -13 22 -29 31 -30
17 -46 44 -62 104 -11 43 -26 72 -34 65 -2 -3 -7 -59 -11 -125 l-6 -120 78
-17 c43 -10 114 -20 158 -23 44 -3 89 -8 100 -11 14 -4 37 8 72 35 33 27 61
41 80 41 16 0 39 9 51 20 22 21 31 47 12 35 -6 -3 -7 1 -4 10 4 8 1 22 -5 29
-7 8 -11 20 -10 28 3 23 -35 97 -53 101 -10 3 -23 18 -30 34 -7 15 -16 33 -21
38 -4 6 -16 22 -28 38 -24 31 -27 32 -56 12z"/>
<path d="M130 910 c-12 -7 -12 -12 -3 -21 15 -15 68 5 58 21 -8 13 -35 13 -55
0z"/>
<path d="M325 869 c-27 -4 -75 -12 -105 -17 -30 -5 -60 -7 -66 -5 -6 2 -24 -1
-40 -8 -16 -6 -39 -13 -51 -15 -65 -8 -63 -2 -63 -160 0 -89 4 -144 10 -144 6
0 10 -9 10 -20 0 -11 -4 -20 -10 -20 -6 0 -10 -28 -10 -64 0 -70 5 -76 66 -76
28 0 34 4 34 21 0 30 18 59 38 59 21 -1 54 -25 45 -33 -3 -4 2 -15 11 -26 9
-10 13 -21 7 -22 -5 -2 -11 -15 -13 -29 -4 -31 -27 -64 -50 -73 -26 -9 -23
-65 4 -94 18 -20 20 -27 11 -43 -10 -14 -10 -20 0 -23 7 -3 3 -6 -9 -6 -21 -1
-66 41 -77 72 -5 12 -1 17 13 17 23 0 26 13 7 28 -8 7 -23 7 -50 -1 l-37 -12
0 -87 0 -88 270 0 270 0 0 98 c0 124 -10 233 -21 226 -5 -3 -9 7 -9 23 0 20
-3 24 -9 14 -7 -10 -13 -5 -25 21 -19 39 -60 74 -100 84 -14 3 -24 9 -21 13 4
8 -87 101 -99 101 -15 0 -75 53 -81 70 -3 11 -15 22 -26 25 -35 11 -19 39 29
50 23 5 32 3 30 -5 -4 -16 39 -33 48 -18 4 5 1 14 -6 18 -11 7 -11 14 0 41 19
46 38 62 95 83 90 34 83 42 -20 25z m-1 -609 c22 -17 52 -30 67 -30 15 0 31
-4 34 -10 3 -5 15 -10 26 -10 11 0 17 5 14 10 -3 6 -2 10 4 10 6 0 17 12 25
28 12 21 15 23 16 8 0 -10 -8 -25 -17 -32 -10 -7 -15 -16 -11 -19 4 -4 15 1
25 11 17 17 18 16 21 -26 5 -71 -3 -88 -46 -95 -20 -4 -72 -20 -115 -36 -141
-54 -187 -28 -152 85 13 40 14 59 6 73 -15 28 13 60 54 62 6 0 28 -13 49 -29z
m156 20 c0 -5 -4 -10 -10 -10 -5 0 -10 5 -10 10 0 6 5 10 10 10 6 0 10 -4 10
-10z"/>
<path d="M782 838 c-1 -20 -8 -43 -16 -51 -8 -8 -17 -43 -21 -78 -3 -35 -8
-88 -11 -116 -7 -67 7 -68 35 -3 19 44 21 65 18 168 -1 64 -4 100 -5 80z"/>
<path d="M1000 789 c0 -5 5 -7 10 -4 6 3 10 8 10 11 0 2 -4 4 -10 4 -5 0 -10
-5 -10 -11z"/>
<path d="M871 554 c0 -11 3 -14 6 -6 3 7 2 16 -1 19 -3 4 -6 -2 -5 -13z"/>
<path d="M855 522 c-14 -10 -45 -59 -45 -72 0 -20 15 -9 38 26 23 35 27 60 7
46z"/>
<path d="M846 444 c-10 -25 1 -29 14 -5 6 12 7 21 1 21 -5 0 -12 -7 -15 -16z"/>
<path d="M756 384 c-5 -14 -4 -15 9 -4 17 14 19 20 6 20 -5 0 -12 -7 -15 -16z"/>
<path d="M630 20 c0 -11 5 -20 10 -20 6 0 10 9 10 20 0 11 -4 20 -10 20 -5 0
-10 -9 -10 -20z"/>
<path d="M2290 10 c-12 -8 -11 -10 8 -10 12 0 22 5 22 10 0 13 -11 13 -30 0z"/>
</g>
</svg>
